<?xml version="1.0" standalone="no"?>
<!DOCTYPE svg PUBLIC "-//W3C//DTD SVG 20010904//EN"
 "http://www.w3.org/TR/2001/REC-SVG-20010904/DTD/svg10.dtd">
<svg version="1.0" xmlns="http://www.w3.org/2000/svg"
 width="1024.000000pt" height="1024.000000pt" viewBox="0 0 1024.000000 1024.000000"
 preserveAspectRatio="xMidYMid meet">

<g transform="translate(0.000000,1024.000000) scale(0.100000,-0.100000)"
fill="#000000" stroke="none">
<path d="M0 5120 l0 -5120 5120 0 5120 0 0 5120 0 5120 -5120 0 -5120 0 0
-5120z m5576 3656 c105 -28 190 -111 220 -214 21 -71 14 -115 -31 -207 -30
-60 -55 -92 -120 -153 -98 -92 -111 -111 -123 -180 -8 -46 -7 -54 9 -62 10 -6
25 -10 34 -10 32 0 142 -61 184 -103 24 -23 65 -74 92 -113 144 -213 347 -348
962 -639 196 -93 253 -131 281 -189 22 -46 20 -66 -4 -66 -37 0 -215 -50 -255
-71 -94 -51 -182 -186 -277 -424 -11 -27 -35 -83 -54 -123 -19 -41 -34 -76
-34 -78 0 -2 -13 -32 -29 -66 -38 -83 -59 -131 -151 -333 -110 -240 -194 -424
-249 -540 -26 -55 -80 -173 -121 -262 -46 -99 -81 -163 -90 -163 -9 -1 -10 -3
-3 -6 7 -3 -16 -61 -68 -165 -43 -88 -79 -164 -79 -169 0 -6 -5 -10 -11 -10
-5 0 -7 -4 -4 -10 3 -5 1 -10 -4 -10 -6 0 -11 -5 -11 -12 0 -20 -32 -48 -55
-48 -38 0 -78 67 -135 225 -12 33 -37 94 -55 135 -99 220 -106 239 -99 265 4
14 3 16 -4 7 -7 -10 -16 3 -32 45 -13 32 -27 63 -32 70 -6 7 -6 18 -2 24 5 8
3 9 -6 4 -10 -6 -12 -4 -7 8 3 10 2 17 -4 17 -6 0 -8 4 -5 9 4 5 2 11 -2 13
-8 3 -72 131 -72 143 0 3 -16 39 -36 81 -19 41 -34 82 -32 92 1 9 -1 23 -6 31
-7 10 -5 12 5 6 8 -5 7 0 -3 12 -13 14 -18 37 -18 82 0 114 20 170 130 366
161 287 240 443 240 472 0 18 6 23 25 23 14 0 25 -3 25 -6 0 -4 -22 -45 -49
-93 -82 -145 -159 -305 -177 -367 -26 -88 -22 -186 10 -266 15 -36 109 -243
209 -459 167 -360 186 -395 213 -404 16 -5 32 -14 36 -20 5 -6 8 -5 8 4 0 7 6
11 14 8 7 -3 13 0 13 6 -1 24 38 97 50 92 7 -2 10 2 6 11 -5 13 78 196 97 214
3 3 7 14 8 25 2 11 7 22 12 25 4 3 11 16 15 30 4 14 30 71 56 127 27 56 49
105 49 107 0 3 11 29 25 58 13 29 45 100 70 158 25 59 50 104 57 102 8 -2 7 2
-2 12 -8 11 -9 16 -1 16 6 0 11 5 11 11 0 10 43 123 77 199 8 19 19 44 23 55
30 73 68 160 96 225 99 229 116 292 95 368 -15 58 -30 75 -89 102 -73 34 -107
88 -66 104 27 10 116 -4 163 -27 41 -19 60 -20 265 -18 122 1 225 6 230 11 5
5 15 6 22 3 18 -7 18 11 0 27 -14 11 -84 19 -310 35 l-89 7 -51 50 c-49 48
-137 110 -223 158 -23 13 -40 26 -38 30 2 4 -2 7 -9 7 -14 0 -284 135 -476
237 -226 121 -226 121 -320 121 -109 0 -125 -7 -605 -280 -205 -117 -217 -123
-324 -177 -70 -35 -106 -49 -109 -40 -2 6 -10 12 -18 12 -9 0 -13 4 -10 9 3 5
-1 11 -9 14 -10 4 -12 1 -8 -10 5 -14 2 -13 -20 3 -52 38 -49 41 89 114 195
104 301 168 408 247 38 28 74 49 81 47 6 -3 24 9 39 25 16 17 34 28 39 24 6
-4 7 -1 2 6 -4 7 1 22 13 34 10 12 43 57 73 101 77 112 83 121 92 124 4 2 7 9
7 16 0 48 186 138 223 108 9 -8 12 4 13 53 1 62 34 155 55 155 5 0 9 6 9 14 0
14 97 86 117 86 6 0 25 18 42 39 115 145 65 356 -103 432 -66 30 -171 26 -237
-9 -68 -35 -116 -102 -125 -175 l-7 -50 -24 27 c-26 30 -25 40 10 115 30 63
94 124 152 143 62 21 153 22 221 4z m-1330 -531 c53 -14 139 -45 190 -70 l92
-44 6 -78 c13 -174 18 -283 13 -283 -24 0 -40 23 -62 91 -66 196 -262 342
-438 326 -96 -9 -152 -33 -218 -94 -53 -49 -61 -63 -84 -134 -44 -139 -30
-300 36 -431 34 -66 124 -162 299 -319 296 -264 524 -496 645 -657 78 -104
160 -276 192 -402 24 -94 27 -124 27 -285 1 -169 -1 -185 -26 -265 -37 -117
-96 -234 -153 -305 -66 -83 -171 -184 -231 -222 -27 -18 -54 -36 -59 -40 -39
-30 -158 -82 -297 -128 -159 -53 -342 -74 -483 -56 -50 7 -91 16 -93 21 -2 4
-11 6 -22 3 -10 -3 -45 3 -77 13 -32 10 -60 18 -63 19 -49 12 -122 46 -138 65
-8 8 -11 9 -7 3 3 -7 4 -13 0 -13 -10 0 -85 53 -85 60 0 4 -11 11 -25 14 -14
4 -25 12 -25 20 0 7 -11 18 -25 24 -16 7 -25 20 -25 34 0 19 -2 20 -10 8 -9
-13 -12 -12 -25 4 -8 11 -15 26 -15 33 0 7 -5 13 -10 13 -6 0 -9 3 -8 8 4 14
-14 55 -33 75 -18 19 -49 98 -49 124 0 7 7 13 15 13 8 0 15 4 15 10 0 5 -7 7
-15 4 -18 -7 -32 23 -17 38 7 7 7 16 -1 29 -8 12 -8 27 0 52 7 25 8 38 0 46
-6 6 -8 13 -4 17 3 3 18 -6 32 -21 15 -14 30 -24 32 -21 3 3 -8 19 -26 35 -35
32 -40 46 -13 37 14 -5 14 -4 -2 9 -11 8 -15 15 -8 15 6 0 9 6 6 14 -5 13 35
105 59 134 8 11 12 11 20 0 6 -9 7 -8 3 6 -4 12 5 31 29 57 19 22 35 44 35 49
0 6 5 10 10 10 6 0 20 9 32 20 33 30 115 55 133 40 22 -18 18 -30 -8 -30 -34
0 -93 -54 -121 -113 -108 -221 -15 -544 207 -722 185 -148 346 -193 522 -146
78 21 180 64 190 81 3 6 11 8 16 5 5 -4 9 -1 9 4 0 6 7 11 15 11 8 0 15 5 15
11 0 5 4 8 8 5 5 -3 16 6 27 20 12 16 24 22 36 19 15 -5 17 -2 12 10 -3 10 -2
20 3 24 30 20 100 158 109 211 3 19 8 49 12 65 11 50 9 106 -4 190 -7 44 -14
89 -16 100 -1 11 -4 22 -7 25 -3 3 -16 30 -30 60 -13 30 -29 62 -35 70 -23 30
-77 124 -79 137 -1 7 -6 16 -11 20 -4 4 -5 1 -1 -7 4 -8 -2 -4 -13 10 -20 24
-25 36 -22 53 1 5 -3 6 -8 3 -5 -3 -14 1 -21 9 -7 8 -9 15 -6 15 4 0 -3 10
-15 23 -11 12 -35 42 -52 67 -34 50 -206 267 -231 292 -9 9 -16 19 -16 23 0 4
-6 12 -12 19 -137 142 -168 178 -162 188 4 6 3 8 -4 4 -10 -6 -77 58 -96 92
-5 10 -12 19 -15 22 -21 18 -108 178 -128 235 -20 57 -24 76 -41 170 -15 85
-7 277 17 380 31 140 111 301 193 389 143 153 158 164 287 213 89 33 130 41
237 42 67 1 117 -6 190 -24z m1288 -1188 c28 -57 29 -58 11 -90 -9 -18 -26
-43 -37 -57 l-20 -25 -30 34 c-27 31 -29 38 -24 90 3 31 7 65 9 76 3 11 5 24
6 28 0 5 13 7 29 5 22 -2 32 -14 56 -61z m-132 -191 c32 -52 42 -76 31 -70
-22 9 -54 9 -116 -1 -44 -7 -50 -6 -77 20 -39 37 -85 104 -77 111 8 9 114 22
156 20 31 -1 38 -8 83 -80z m408 70 c0 -2 3 -11 6 -20 4 -11 0 -16 -13 -16
-10 0 -43 -22 -73 -49 -30 -27 -59 -47 -65 -46 -37 12 -95 13 -95 2 0 -8 -4
-7 -10 3 -5 8 -10 10 -10 3 0 -13 -24 -12 -26 2 -1 6 2 9 7 8 5 -2 8 0 7 5 -3
15 15 42 28 42 8 0 14 6 14 14 0 8 7 16 15 20 8 3 15 12 15 21 0 12 17 15 100
15 55 0 100 -2 100 -4z m-370 -259 c-14 -66 -33 -97 -60 -97 -9 0 -20 -3 -23
-6 -11 -12 -104 -40 -116 -36 -15 5 -14 46 4 89 8 19 15 48 15 63 0 26 3 28
56 35 31 4 72 12 92 19 23 8 38 10 41 4 2 -6 -2 -38 -9 -71z m164 49 l70 -12
34 -83 c19 -45 32 -84 29 -87 -3 -3 -27 1 -54 8 -26 8 -59 13 -73 12 -14 -1
-30 3 -37 8 -7 5 -17 7 -23 3 -12 -7 -17 5 -24 64 -3 24 -13 57 -21 74 -19 39
-19 40 7 31 12 -3 53 -12 92 -18z m-3289 -2451 c114 -24 110 -18 109 -146 -1
-60 -4 -112 -7 -115 -8 -8 -47 47 -47 65 0 33 -60 99 -112 125 -69 35 -189 37
-255 5 -81 -39 -116 -123 -93 -228 23 -110 67 -152 308 -296 151 -90 242 -170
275 -242 32 -70 32 -219 -1 -283 -66 -129 -216 -225 -388 -248 -91 -13 -228 8
-257 38 -21 24 -28 25 -21 5 8 -19 4 -19 -33 0 -33 17 -57 41 -67 69 -4 13 -2
17 7 13 10 -4 12 3 9 24 -2 16 -7 29 -11 29 -3 0 -7 11 -7 25 -1 14 2 25 6 25
8 0 23 -38 21 -52 0 -4 6 -5 15 -1 15 5 14 7 -1 16 -14 8 -15 11 -4 18 10 6
11 9 2 9 -7 0 -13 7 -13 15 0 8 -5 14 -11 12 -6 -1 -14 4 -16 11 -3 6 1 12 9
12 9 0 10 3 2 8 -14 9 -29 92 -17 92 22 0 43 -30 63 -90 41 -123 129 -203 244
-223 51 -9 77 -7 149 8 48 10 87 22 87 27 0 4 5 8 11 8 14 0 29 18 53 60 21
37 31 179 16 209 -5 9 -18 37 -30 64 -14 30 -37 58 -66 79 -24 17 -44 38 -44
45 0 8 -4 11 -10 8 -10 -6 -116 61 -139 89 -7 9 -17 13 -22 10 -5 -3 -9 -1 -9
5 0 5 -12 11 -27 13 -16 2 -27 8 -25 16 1 6 -3 11 -8 10 -18 -5 -109 66 -112
87 -2 11 -6 18 -9 15 -10 -7 -50 31 -43 41 3 5 1 9 -4 9 -6 0 -8 10 -5 23 3
15 2 18 -4 9 -14 -19 -31 26 -39 101 -10 97 24 187 98 260 15 15 28 31 28 37
0 5 7 7 15 4 10 -4 15 0 15 11 0 9 5 13 10 10 6 -3 10 -2 10 2 0 11 63 39 115
52 62 14 202 12 280 -4z m587 -307 c3 -255 6 -312 17 -316 9 -3 11 0 6 8 -5 8
-4 11 2 7 11 -7 53 24 53 40 0 12 80 73 97 73 7 0 13 3 13 8 0 16 59 34 126
39 59 5 77 2 115 -17 57 -29 95 -65 122 -115 21 -38 22 -53 23 -342 2 -296 2
-302 25 -343 13 -22 38 -50 56 -61 43 -27 43 -44 1 -34 -18 4 -98 8 -177 10
-140 3 -160 8 -161 38 0 12 45 8 59 -5 10 -11 11 -10 6 5 -4 9 -3 17 3 17 6 0
13 14 17 30 6 28 25 43 25 20 0 -5 5 -10 12 -10 6 0 4 7 -5 18 -14 15 -17 40
-17 130 0 83 3 112 13 112 8 0 9 2 1 8 -13 8 -15 112 -3 112 5 0 13 -8 18 -17
6 -10 11 -13 11 -6 0 6 -8 18 -17 25 -14 10 -19 30 -20 78 -3 86 -25 139 -74
183 -22 20 -43 36 -47 35 -4 -1 -33 2 -65 7 -54 7 -64 5 -120 -24 -34 -17 -75
-43 -90 -56 l-28 -25 3 -278 c3 -266 4 -278 25 -312 12 -19 38 -46 58 -59 46
-31 45 -46 -2 -35 -21 5 -103 9 -183 10 -178 2 -170 1 -141 24 27 23 48 26 54
8 2 -7 2 -2 0 10 -3 17 0 21 8 16 8 -4 9 -3 5 5 -4 7 -4 20 0 29 12 28 13 55
14 330 1 165 5 262 11 262 6 0 7 5 2 13 -4 6 -8 91 -9 187 -1 96 -5 189 -10
206 -10 34 -57 94 -73 94 -6 0 -11 5 -11 10 0 6 -3 9 -7 8 -8 -3 -13 5 -13 22
0 6 17 17 38 26 20 8 78 35 127 59 50 24 93 44 97 44 4 1 9 -139 10 -311z
m2283 222 c0 -9 -11 -16 -27 -18 -34 -4 -58 -36 -58 -77 0 -17 36 -132 81
-255 98 -275 169 -481 199 -578 20 -63 24 -70 35 -55 17 24 68 147 160 383 42
107 94 238 114 290 59 147 63 162 52 211 -7 32 -20 52 -45 72 -20 16 -36 33
-36 38 0 5 61 9 135 9 150 0 164 -7 98 -51 -20 -13 -45 -38 -55 -55 -23 -40
-136 -309 -278 -664 -79 -195 -137 -337 -159 -385 -10 -22 -26 -61 -36 -87
-25 -68 -39 -62 -69 26 -19 60 -20 54 2 59 14 4 14 5 -3 6 -16 1 -27 21 -53
94 -18 50 -39 106 -47 122 -7 17 -27 71 -43 120 -68 200 -104 300 -137 380 -7
17 -31 82 -53 145 -50 148 -71 188 -120 232 -67 61 -72 59 145 56 168 -3 198
-5 198 -18z m-510 -24 c38 -16 62 -47 71 -94 6 -27 1 -37 -29 -67 -45 -45 -88
-47 -135 -7 -38 32 -44 74 -18 134 22 51 50 59 111 34z m2933 -118 c8 -8 12
-48 12 -115 l0 -103 107 0 c112 0 143 -11 143 -50 0 -15 -15 -17 -127 -19 -70
-1 -127 -3 -128 -4 0 -1 2 -145 5 -319 l5 -318 33 -32 c27 -28 39 -33 80 -33
26 0 63 3 82 5 26 4 35 1 35 -10 0 -8 -9 -16 -20 -19 -11 -2 -36 -16 -56 -32
-104 -82 -216 -107 -264 -59 -47 47 -57 135 -59 500 l-1 325 -57 0 c-49 0 -60
4 -74 23 -24 34 -11 52 38 53 39 1 114 15 95 18 -4 0 -3 7 3 14 23 26 80 122
80 134 0 7 5 13 11 13 6 0 8 9 4 20 -5 16 -2 20 17 20 13 0 29 -5 36 -12z
m-1273 -232 c60 -26 112 -73 140 -129 25 -52 55 -181 55 -238 l0 -29 -292 -2
c-243 -3 -293 -5 -290 -17 2 -7 7 -49 13 -93 14 -109 41 -179 89 -222 64 -58
95 -69 190 -70 71 -1 93 3 135 24 28 13 55 23 61 22 7 -1 14 6 17 17 7 29 55
57 70 42 9 -10 -2 -26 -53 -73 -92 -85 -140 -116 -211 -134 -131 -34 -262 6
-375 114 -40 39 -55 59 -51 73 3 10 2 17 -2 14 -11 -6 -28 31 -45 95 -18 71
-13 224 10 293 17 50 49 117 63 127 3 3 22 28 40 55 19 28 44 58 55 68 33 30
116 68 165 78 63 11 171 4 216 -15z m808 5 c9 -9 45 -135 47 -164 1 -22 -37 3
-65 43 -41 58 -103 84 -188 78 -95 -7 -144 -59 -131 -139 10 -60 53 -103 180
-178 197 -117 270 -219 244 -337 -26 -114 -101 -181 -244 -218 -46 -12 -65
-12 -137 0 -46 8 -100 23 -119 33 -19 10 -40 16 -47 14 -15 -5 -23 159 -8 169
18 13 26 9 43 -23 28 -53 73 -99 115 -121 34 -17 53 -19 111 -15 39 3 80 8 91
11 11 2 23 5 28 5 17 2 47 69 47 106 0 44 -28 112 -53 134 -9 7 -14 18 -10 24
3 5 2 7 -4 4 -5 -3 -20 1 -33 10 -12 9 -43 27 -67 40 -25 13 -52 30 -61 39 -8
9 -34 27 -56 41 -121 75 -165 169 -131 278 10 30 20 55 24 55 3 0 17 16 30 35
13 19 27 32 32 29 5 -3 9 1 9 10 0 8 19 21 43 30 23 8 49 17 57 20 27 10 241
-1 253 -13z m1349 -14 c62 -36 111 -96 131 -158 14 -42 17 -96 17 -301 0 -211
3 -255 16 -284 19 -39 61 -66 91 -58 12 3 24 1 27 -5 7 -11 -62 -50 -137 -75
-45 -15 -51 -15 -83 0 -46 22 -74 62 -53 75 10 6 10 9 2 9 -7 0 -13 11 -13 24
0 14 -4 27 -9 30 -5 3 -46 -22 -92 -55 -183 -134 -272 -142 -372 -36 -48 50
-60 75 -59 123 1 48 41 130 68 141 8 3 14 10 14 17 0 31 313 195 403 211 43 8
63 35 48 63 -12 22 -4 62 13 62 6 0 3 5 -6 11 -10 5 -18 17 -18 25 0 27 -57
99 -94 119 -20 11 -36 22 -36 25 0 15 -98 -8 -126 -29 -17 -12 -59 -56 -93
-97 -35 -41 -65 -74 -67 -74 -11 0 -64 31 -64 38 0 18 73 95 136 143 88 67
147 89 239 86 56 -2 80 -8 117 -30z m-4194 9 c72 -37 88 -98 48 -181 -24 -47
-31 -55 -56 -55 -21 0 -38 11 -67 45 -42 50 -96 73 -122 52 -9 -7 -42 -37 -73
-69 l-58 -56 0 -244 c0 -233 1 -246 23 -288 12 -25 38 -55 57 -68 50 -33 51
-46 4 -37 -22 5 -104 9 -184 10 -136 1 -145 2 -145 21 0 12 7 19 20 20 11 1
25 2 32 3 29 3 37 75 38 341 0 230 -3 269 -17 294 -9 16 -15 33 -13 37 3 3
-16 17 -40 30 -25 13 -45 29 -45 35 0 6 26 20 58 32 73 26 193 62 204 62 5 0
9 -24 8 -52 -4 -113 -1 -128 19 -128 11 0 37 19 58 41 158 171 186 188 251
155z m424 -340 c-3 -179 -1 -349 2 -379 8 -63 44 -125 87 -149 41 -24 38 -41
-6 -32 -19 3 -100 7 -179 8 -79 0 -148 4 -152 8 -12 12 18 39 36 33 18 -6 50
18 50 36 0 6 3 8 8 6 4 -3 7 18 6 46 -1 29 4 55 10 59 6 5 7 8 1 8 -6 0 -9 40
-8 102 7 340 1 373 -72 435 -25 21 -44 42 -42 47 3 8 224 91 253 95 7 1 9
-100 6 -323z"/>
<path d="M5345 7760 c3 -5 11 -10 16 -10 6 0 7 5 4 10 -3 6 -11 10 -16 10 -6
0 -7 -4 -4 -10z"/>
<path d="M5720 7670 c0 -5 5 -10 11 -10 5 0 7 5 4 10 -3 6 -8 10 -11 10 -2 0
-4 -4 -4 -10z"/>
<path d="M5626 7597 c3 -10 9 -15 12 -12 3 3 0 11 -7 18 -10 9 -11 8 -5 -6z"/>
<path d="M5046 7487 c3 -10 9 -15 12 -12 3 3 0 11 -7 18 -10 9 -11 8 -5 -6z"/>
<path d="M5108 7453 c7 -3 16 -2 19 1 4 3 -2 6 -13 5 -11 0 -14 -3 -6 -6z"/>
<path d="M6070 7416 c0 -2 7 -7 16 -10 8 -3 12 -2 9 4 -6 10 -25 14 -25 6z"/>
<path d="M4900 7381 c0 -5 7 -12 16 -15 14 -5 15 -4 4 9 -14 17 -20 19 -20 6z"/>
<path d="M4930 7386 c0 -2 8 -10 18 -17 15 -13 16 -12 3 4 -13 16 -21 21 -21
13z"/>
<path d="M4664 7241 c20 -22 26 -25 26 -13 0 4 -10 13 -22 21 -23 14 -23 14
-4 -8z"/>
<path d="M4590 7176 c0 -2 8 -10 18 -17 15 -13 16 -12 3 4 -13 16 -21 21 -21
13z"/>
<path d="M6680 7020 c0 -6 7 -10 15 -10 8 0 15 2 15 4 0 2 -7 6 -15 10 -8 3
-15 1 -15 -4z"/>
<path d="M6837 7019 c7 -7 15 -10 18 -7 3 3 -2 9 -12 12 -14 6 -15 5 -6 -5z"/>
<path d="M6667 6709 c7 -7 15 -10 18 -7 3 3 -2 9 -12 12 -14 6 -15 5 -6 -5z"/>
<path d="M6498 6453 c7 -3 16 -2 19 1 4 3 -2 6 -13 5 -11 0 -14 -3 -6 -6z"/>
<path d="M6410 6276 c0 -2 8 -10 18 -17 15 -13 16 -12 3 4 -13 16 -21 21 -21
13z"/>
<path d="M6420 6210 c-9 -6 -10 -10 -3 -10 6 0 15 5 18 10 8 12 4 12 -15 0z"/>
<path d="M6240 5976 c0 -2 8 -10 18 -17 15 -13 16 -12 3 4 -13 16 -21 21 -21
13z"/>
<path d="M6200 5880 c0 -5 5 -10 11 -10 5 0 7 5 4 10 -3 6 -8 10 -11 10 -2 0
-4 -4 -4 -10z"/>
<path d="M5130 5821 c0 -5 5 -13 10 -16 6 -3 10 -2 10 4 0 5 -4 13 -10 16 -5
3 -10 2 -10 -4z"/>
<path d="M5147 5749 c7 -7 15 -10 18 -7 3 3 -2 9 -12 12 -14 6 -15 5 -6 -5z"/>
<path d="M5060 5705 c0 -8 4 -15 10 -15 5 0 7 7 4 15 -4 8 -8 15 -10 15 -2 0
-4 -7 -4 -15z"/>
<path d="M5198 5598 c5 -5 16 -8 23 -6 8 3 3 7 -10 11 -17 4 -21 3 -13 -5z"/>
<path d="M5095 5580 c3 -5 11 -10 16 -10 6 0 7 5 4 10 -3 6 -11 10 -16 10 -6
0 -7 -4 -4 -10z"/>
<path d="M5240 5560 c0 -5 5 -10 11 -10 5 0 7 5 4 10 -3 6 -8 10 -11 10 -2 0
-4 -4 -4 -10z"/>
<path d="M5214 5535 c36 -19 47 -19 22 0 -11 8 -27 15 -35 15 -9 0 -3 -7 13
-15z"/>
<path d="M5135 5510 c10 -11 20 -20 22 -20 2 0 -1 9 -7 20 -6 11 -16 20 -22
20 -6 0 -3 -9 7 -20z"/>
<path d="M5190 5506 c0 -2 8 -10 18 -17 15 -13 16 -12 3 4 -13 16 -21 21 -21
13z"/>
<path d="M5187 5475 c10 -13 22 -25 27 -25 5 0 -1 11 -14 25 -30 32 -36 32
-13 0z"/>
<path d="M5121 5487 c2 -1 13 -9 24 -17 19 -14 19 -14 6 3 -7 9 -18 17 -24 17
-6 0 -8 -1 -6 -3z"/>
<path d="M5240 5486 c0 -2 7 -9 15 -16 9 -7 15 -8 15 -2 0 5 -7 12 -15 16 -8
3 -15 4 -15 2z"/>
<path d="M5100 5470 c0 -5 5 -10 11 -10 5 0 7 5 4 10 -3 6 -8 10 -11 10 -2 0
-4 -4 -4 -10z"/>
<path d="M5234 5443 c2 -9 8 -18 15 -19 6 -1 7 0 1 3 -5 2 -8 9 -5 13 3 5 1
11 -4 14 -5 4 -8 -2 -7 -11z"/>
<path d="M5305 5430 c3 -5 8 -10 11 -10 2 0 4 5 4 10 0 6 -5 10 -11 10 -5 0
-7 -4 -4 -10z"/>
<path d="M5158 5423 c7 -3 16 -2 19 1 4 3 -2 6 -13 5 -11 0 -14 -3 -6 -6z"/>
<path d="M5340 5411 c0 -5 5 -13 10 -16 6 -3 10 -2 10 4 0 5 -4 13 -10 16 -5
3 -10 2 -10 -4z"/>
<path d="M5151 5399 c0 -9 8 -24 19 -34 18 -17 20 -17 14 -2 -3 9 -10 17 -14
17 -5 0 -11 8 -13 18 -4 14 -5 14 -6 1z"/>
<path d="M5190 5396 c0 -2 8 -10 18 -17 15 -13 16 -12 3 4 -13 16 -21 21 -21
13z"/>
<path d="M5188 5333 c7 -3 16 -2 19 1 4 3 -2 6 -13 5 -11 0 -14 -3 -6 -6z"/>
<path d="M5310 5330 c0 -6 7 -13 15 -17 24 -9 27 1 5 15 -13 8 -20 8 -20 2z"/>
<path d="M5160 5310 c-9 -6 -10 -10 -3 -10 6 0 15 5 18 10 8 12 4 12 -15 0z"/>
<path d="M5220 5305 c0 -8 4 -15 10 -15 5 0 7 7 4 15 -4 8 -8 15 -10 15 -2 0
-4 -7 -4 -15z"/>
<path d="M5260 5290 c0 -5 7 -7 15 -4 8 4 15 8 15 10 0 2 -7 4 -15 4 -8 0 -15
-4 -15 -10z"/>
<path d="M5996 5253 c-4 -9 -1 -21 5 -27 9 -8 10 -7 4 3 -4 7 -2 16 5 21 8 5
8 10 2 14 -5 3 -13 -2 -16 -11z"/>
<path d="M5400 5191 c0 -10 19 -25 25 -20 1 2 -3 10 -11 17 -8 7 -14 8 -14 3z"/>
<path d="M5956 5187 c3 -10 9 -15 12 -12 3 3 0 11 -7 18 -10 9 -11 8 -5 -6z"/>
<path d="M5380 5160 c0 -5 5 -10 11 -10 5 0 7 5 4 10 -3 6 -8 10 -11 10 -2 0
-4 -4 -4 -10z"/>
<path d="M5252 5149 c2 -7 12 -13 21 -15 23 -3 21 3 -4 17 -17 8 -20 8 -17 -2z"/>
<path d="M5920 5136 c0 -2 8 -10 18 -17 15 -13 16 -12 3 4 -13 16 -21 21 -21
13z"/>
<path d="M5345 5090 c3 -5 8 -10 11 -10 2 0 4 5 4 10 0 6 -5 10 -11 10 -5 0
-7 -4 -4 -10z"/>
<path d="M5370 5062 c0 -12 19 -26 26 -19 2 2 -2 10 -11 17 -9 8 -15 8 -15 2z"/>
<path d="M5311 5052 c-2 -21 18 -52 34 -52 7 0 16 -6 18 -12 4 -10 6 -10 6 0
1 8 -7 16 -17 19 -10 2 -23 17 -29 31 -6 15 -11 21 -12 14z"/>
<path d="M5480 5031 c0 -6 4 -13 10 -16 6 -3 7 1 4 9 -7 18 -14 21 -14 7z"/>
<path d="M5880 5020 c0 -5 5 -10 11 -10 5 0 7 5 4 10 -3 6 -8 10 -11 10 -2 0
-4 -4 -4 -10z"/>
<path d="M5295 5010 c3 -5 8 -10 11 -10 2 0 4 5 4 10 0 6 -5 10 -11 10 -5 0
-7 -4 -4 -10z"/>
<path d="M5380 5010 c8 -5 20 -10 25 -10 6 0 3 5 -5 10 -8 5 -19 10 -25 10 -5
0 -3 -5 5 -10z"/>
<path d="M5870 4996 c0 -2 8 -10 18 -17 15 -13 16 -12 3 4 -13 16 -21 21 -21
13z"/>
<path d="M5460 4970 c0 -6 7 -10 15 -10 8 0 15 2 15 4 0 2 -7 6 -15 10 -8 3
-15 1 -15 -4z"/>
<path d="M5501 4977 c2 -1 13 -9 24 -17 19 -14 19 -14 6 3 -7 9 -18 17 -24 17
-6 0 -8 -1 -6 -3z"/>
<path d="M5435 4960 c-3 -5 -1 -10 4 -10 6 0 11 5 11 10 0 6 -2 10 -4 10 -3 0
-8 -4 -11 -10z"/>
<path d="M5480 4940 c0 -5 5 -10 11 -10 5 0 7 5 4 10 -3 6 -8 10 -11 10 -2 0
-4 -4 -4 -10z"/>
<path d="M5550 4938 c0 -9 7 -19 16 -22 15 -6 15 -4 3 11 -7 10 -15 20 -16 22
-2 2 -3 -3 -3 -11z"/>
<path d="M5870 4940 c0 -5 5 -10 11 -10 5 0 7 5 4 10 -3 6 -8 10 -11 10 -2 0
-4 -4 -4 -10z"/>
<path d="M5340 4920 c0 -5 5 -10 11 -10 5 0 7 5 4 10 -3 6 -8 10 -11 10 -2 0
-4 -4 -4 -10z"/>
<path d="M5377 4909 c7 -7 15 -10 18 -7 3 3 -2 9 -12 12 -14 6 -15 5 -6 -5z"/>
<path d="M5430 4911 c0 -5 5 -13 10 -16 6 -3 10 -2 10 4 0 5 -4 13 -10 16 -5
3 -10 2 -10 -4z"/>
<path d="M5540 4894 c0 -18 24 -34 50 -33 20 1 21 2 5 6 -11 3 -28 12 -37 21
-10 8 -18 11 -18 6z"/>
<path d="M5480 4886 c0 -2 7 -6 15 -10 8 -3 15 -1 15 4 0 6 -7 10 -15 10 -8 0
-15 -2 -15 -4z"/>
<path d="M5802 4874 c10 -10 20 -16 22 -13 3 3 -5 11 -17 18 -21 13 -21 12 -5
-5z"/>
<path d="M5434 4872 c3 -5 17 -12 32 -15 30 -5 20 8 -15 18 -15 4 -21 3 -17
-3z"/>
<path d="M5447 4821 c3 -12 12 -21 19 -21 8 0 14 -5 14 -12 0 -6 3 -8 7 -5 3
4 -6 18 -20 32 -23 24 -25 24 -20 6z"/>
<path d="M5548 4833 c7 -3 16 -2 19 1 4 3 -2 6 -13 5 -11 0 -14 -3 -6 -6z"/>
<path d="M5700 4805 c0 -8 4 -15 10 -15 5 0 7 7 4 15 -4 8 -8 15 -10 15 -2 0
-4 -7 -4 -15z"/>
<path d="M5771 4817 c2 -1 13 -9 24 -17 19 -14 19 -14 6 3 -7 9 -18 17 -24 17
-6 0 -8 -1 -6 -3z"/>
<path d="M5669 4780 c25 -21 46 -27 36 -10 -3 6 -13 10 -21 10 -8 0 -14 5 -14
10 0 6 -6 10 -12 10 -7 -1 -2 -10 11 -20z"/>
<path d="M5418 4758 c6 -6 18 -8 28 -6 14 3 12 5 -9 10 -19 3 -25 2 -19 -4z"/>
<path d="M5488 4758 c5 -5 16 -8 23 -6 8 3 3 7 -10 11 -17 4 -21 3 -13 -5z"/>
<path d="M5576 4757 c3 -10 9 -15 12 -12 3 3 0 11 -7 18 -10 9 -11 8 -5 -6z"/>
<path d="M5647 4754 c6 -15 23 -19 23 -5 0 5 -7 11 -14 14 -10 4 -13 1 -9 -9z"/>
<path d="M5533 4720 c4 -24 27 -51 27 -32 0 7 -6 12 -12 12 -9 0 -8 4 2 10 13
9 13 10 0 10 -13 0 -13 1 0 10 13 8 12 10 -2 10 -12 0 -17 -6 -15 -20z"/>
<path d="M5723 4715 c0 -8 4 -12 9 -9 5 3 15 0 23 -6 8 -7 15 -9 15 -5 0 8
-31 34 -41 35 -3 0 -6 -7 -6 -15z"/>
<path d="M5438 4708 c6 -6 18 -8 28 -6 14 3 12 5 -9 10 -19 3 -25 2 -19 -4z"/>
<path d="M5615 4710 c3 -5 8 -10 11 -10 2 0 4 5 4 10 0 6 -5 10 -11 10 -5 0
-7 -4 -4 -10z"/>
<path d="M5700 4690 c0 -5 5 -10 11 -10 5 0 7 5 4 10 -3 6 -8 10 -11 10 -2 0
-4 -4 -4 -10z"/>
<path d="M5490 4680 c0 -6 7 -10 15 -10 8 0 15 2 15 4 0 2 -7 6 -15 10 -8 3
-15 1 -15 -4z"/>
<path d="M5471 4669 c-1 -17 18 -29 45 -29 9 0 12 5 9 10 -3 6 -15 10 -25 10
-10 0 -21 6 -23 13 -4 7 -6 6 -6 -4z"/>
<path d="M5443 4645 c0 -8 4 -12 9 -9 4 3 8 9 8 15 0 5 -4 9 -8 9 -5 0 -9 -7
-9 -15z"/>
<path d="M5585 4650 c3 -5 8 -10 11 -10 2 0 4 5 4 10 0 6 -5 10 -11 10 -5 0
-7 -4 -4 -10z"/>
<path d="M5623 4626 c10 -8 27 -12 38 -9 25 7 22 9 -21 16 -31 6 -33 5 -17 -7z"/>
<path d="M5534 4606 c11 -9 24 -16 30 -16 12 0 7 5 -24 19 -24 11 -24 11 -6
-3z"/>
<path d="M5587 4579 c7 -7 15 -10 18 -7 3 3 -2 9 -12 12 -14 6 -15 5 -6 -5z"/>
<path d="M5550 4571 c0 -10 30 -24 37 -17 3 2 -5 9 -16 16 -12 6 -21 7 -21 1z"/>
<path d="M5470 4566 c0 -2 7 -6 15 -10 8 -3 15 -1 15 4 0 6 -7 10 -15 10 -8 0
-15 -2 -15 -4z"/>
<path d="M5500 4536 c0 -2 7 -7 16 -10 8 -3 12 -2 9 4 -6 10 -25 14 -25 6z"/>
<path d="M5580 4536 c0 -2 7 -9 15 -16 9 -7 15 -8 15 -2 0 5 -7 12 -15 16 -8
3 -15 4 -15 2z"/>
<path d="M5556 4483 c-6 -14 -5 -15 5 -6 7 7 10 15 7 18 -3 3 -9 -2 -12 -12z"/>
<path d="M5517 4469 c7 -7 15 -10 18 -7 3 3 -2 9 -12 12 -14 6 -15 5 -6 -5z"/>
<path d="M5611 4464 c0 -11 3 -14 6 -6 3 7 2 16 -1 19 -3 4 -6 -2 -5 -13z"/>
<path d="M5575 4460 c3 -5 8 -10 11 -10 2 0 4 5 4 10 0 6 -5 10 -11 10 -5 0
-7 -4 -4 -10z"/>
<path d="M5545 4440 c3 -5 11 -10 16 -10 6 0 7 5 4 10 -3 6 -11 10 -16 10 -6
0 -7 -4 -4 -10z"/>
<path d="M5585 4370 c3 -5 8 -10 11 -10 2 0 4 5 4 10 0 6 -5 10 -11 10 -5 0
-7 -4 -4 -10z"/>
<path d="M3830 8182 c-120 -44 -204 -139 -261 -293 -21 -57 -24 -81 -23 -209
0 -139 1 -149 33 -232 18 -47 51 -113 74 -146 41 -59 382 -397 443 -440 l32
-22 4 24 c6 30 -6 51 -65 116 -26 28 -44 57 -41 62 4 6 2 8 -3 5 -12 -8 -229
219 -225 234 1 6 -2 8 -7 4 -11 -6 -79 81 -109 140 -77 154 -76 357 2 516 68
139 113 194 176 219 85 33 56 54 -30 22z"/>
<path d="M3424 7604 c-10 -39 13 -238 37 -324 27 -98 87 -226 143 -305 25 -34
96 -116 158 -181 155 -164 284 -307 347 -384 29 -36 59 -73 68 -84 45 -55 161
-242 199 -322 62 -127 84 -210 91 -336 12 -230 -50 -405 -198 -559 -137 -141
-315 -216 -524 -220 l-50 0 40 -16 c76 -29 283 9 433 80 37 17 70 30 75 29 4
-1 7 2 7 7 0 5 15 14 33 22 46 19 149 111 191 172 57 84 106 218 109 300 0 15
5 27 9 27 5 0 7 4 4 9 -3 5 -8 60 -10 122 -6 149 -40 282 -106 414 -44 87
-133 240 -157 270 -4 6 -24 30 -43 55 -19 25 -74 89 -123 142 -54 60 -86 102
-81 109 5 8 3 9 -5 5 -16 -10 -343 320 -417 419 -106 144 -151 270 -169 475
-4 41 -11 81 -17 88 -17 20 -37 14 -44 -14z"/>
<path d="M3650 7206 c0 -2 8 -10 18 -17 15 -13 16 -12 3 4 -13 16 -21 21 -21
13z"/>
<path d="M3993 7161 c1 -11 6 -17 14 -14 10 4 11 9 2 19 -15 19 -18 18 -16 -5z"/>
<path d="M3455 7110 c10 -11 20 -20 23 -20 3 0 -3 9 -13 20 -10 11 -20 20 -23
20 -3 0 3 -9 13 -20z"/>
<path d="M4087 7109 c7 -7 15 -10 18 -7 3 3 -2 9 -12 12 -14 6 -15 5 -6 -5z"/>
<path d="M3736 7097 c3 -10 9 -15 12 -12 3 3 0 11 -7 18 -10 9 -11 8 -5 -6z"/>
<path d="M3400 7066 c0 -2 7 -6 15 -10 8 -3 15 -1 15 4 0 6 -7 10 -15 10 -8 0
-15 -2 -15 -4z"/>
<path d="M3720 7050 c0 -5 5 -10 11 -10 5 0 7 5 4 10 -3 6 -8 10 -11 10 -2 0
-4 -4 -4 -10z"/>
<path d="M4077 7039 c7 -7 15 -10 18 -7 3 3 -2 9 -12 12 -14 6 -15 5 -6 -5z"/>
<path d="M3442 7014 c10 -10 20 -15 24 -12 3 4 -5 12 -18 18 -22 12 -22 12 -6
-6z"/>
<path d="M4115 7020 c3 -5 8 -10 11 -10 2 0 4 5 4 10 0 6 -5 10 -11 10 -5 0
-7 -4 -4 -10z"/>
<path d="M4180 7010 c0 -5 5 -10 11 -10 5 0 7 5 4 10 -3 6 -8 10 -11 10 -2 0
-4 -4 -4 -10z"/>
<path d="M3480 7001 c0 -5 7 -12 16 -15 14 -5 15 -4 4 9 -14 17 -20 19 -20 6z"/>
<path d="M3777 6969 c7 -7 15 -10 18 -7 3 3 -2 9 -12 12 -14 6 -15 5 -6 -5z"/>
<path d="M3435 6960 c3 -5 8 -10 11 -10 2 0 4 5 4 10 0 6 -5 10 -11 10 -5 0
-7 -4 -4 -10z"/>
<path d="M3465 6940 c3 -5 8 -10 11 -10 2 0 4 5 4 10 0 6 -5 10 -11 10 -5 0
-7 -4 -4 -10z"/>
<path d="M3836 6932 c-7 -12 6 -27 29 -35 l20 -7 -20 16 c-11 8 -19 20 -17 25
3 11 -5 12 -12 1z"/>
<path d="M3540 6910 c6 -11 13 -20 16 -20 2 0 0 9 -6 20 -6 11 -13 20 -16 20
-2 0 0 -9 6 -20z"/>
<path d="M3900 6906 c0 -2 8 -10 18 -17 15 -13 16 -12 3 4 -13 16 -21 21 -21
13z"/>
<path d="M4208 6903 c7 -3 16 -2 19 1 4 3 -2 6 -13 5 -11 0 -14 -3 -6 -6z"/>
<path d="M4280 6891 c0 -5 7 -15 17 -22 15 -13 15 -12 4 9 -12 23 -21 28 -21
13z"/>
<path d="M3508 6872 c9 -10 19 -17 21 -16 6 5 -20 34 -30 34 -5 0 -1 -8 9 -18z"/>
<path d="M3526 6823 c-4 -9 -4 -18 -1 -21 3 -3 5 0 5 7 0 8 7 11 15 7 8 -3 15
-1 15 3 0 17 -28 20 -34 4z"/>
<path d="M3990 6830 c0 -5 5 -10 11 -10 5 0 7 5 4 10 -3 6 -8 10 -11 10 -2 0
-4 -4 -4 -10z"/>
<path d="M3930 6790 c0 -5 5 -10 11 -10 5 0 7 5 4 10 -3 6 -8 10 -11 10 -2 0
-4 -4 -4 -10z"/>
<path d="M3690 6780 c0 -5 5 -10 11 -10 5 0 7 5 4 10 -3 6 -8 10 -11 10 -2 0
-4 -4 -4 -10z"/>
<path d="M3630 6750 c12 -16 24 -30 26 -30 3 0 -4 14 -16 30 -12 17 -24 30
-26 30 -3 0 4 -13 16 -30z"/>
<path d="M4278 6753 c7 -3 16 -2 19 1 4 3 -2 6 -13 5 -11 0 -14 -3 -6 -6z"/>
<path d="M4342 6734 c10 -10 20 -16 22 -13 3 3 -5 11 -17 18 -21 13 -21 12 -5
-5z"/>
<path d="M4156 6726 c3 -9 13 -16 22 -16 8 0 13 1 11 3 -2 1 -12 9 -22 16 -15
12 -17 12 -11 -3z"/>
<path d="M4450 6720 c6 -11 13 -20 16 -20 2 0 0 9 -6 20 -6 11 -13 20 -16 20
-2 0 0 -9 6 -20z"/>
<path d="M4240 6706 c0 -2 7 -7 16 -10 8 -3 12 -2 9 4 -6 10 -25 14 -25 6z"/>
<path d="M4090 6690 c0 -5 5 -10 11 -10 5 0 7 5 4 10 -3 6 -8 10 -11 10 -2 0
-4 -4 -4 -10z"/>
<path d="M4140 6681 c0 -6 4 -13 10 -16 6 -3 7 1 4 9 -7 18 -14 21 -14 7z"/>
<path d="M3676 6667 c3 -10 9 -15 12 -12 3 3 0 11 -7 18 -10 9 -11 8 -5 -6z"/>
<path d="M4320 6671 c0 -5 5 -13 10 -16 6 -3 10 -2 10 4 0 5 -4 13 -10 16 -5
3 -10 2 -10 -4z"/>
<path d="M4520 6650 c0 -5 5 -10 11 -10 5 0 7 5 4 10 -3 6 -8 10 -11 10 -2 0
-4 -4 -4 -10z"/>
<path d="M3750 6632 c0 -4 10 -13 23 -21 22 -14 22 -14 3 8 -20 22 -26 25 -26
13z"/>
<path d="M4300 6610 c0 -5 5 -10 11 -10 5 0 7 5 4 10 -3 6 -8 10 -11 10 -2 0
-4 -4 -4 -10z"/>
<path d="M3840 6591 c0 -6 4 -13 10 -16 6 -3 7 1 4 9 -7 18 -14 21 -14 7z"/>
<path d="M4410 6570 c8 -5 20 -10 25 -10 6 0 3 5 -5 10 -8 5 -19 10 -25 10 -5
0 -3 -5 5 -10z"/>
<path d="M4488 6553 c7 -3 16 -2 19 1 4 3 -2 6 -13 5 -11 0 -14 -3 -6 -6z"/>
<path d="M4527 6549 c7 -7 15 -10 18 -7 3 3 -2 9 -12 12 -14 6 -15 5 -6 -5z"/>
<path d="M3830 6534 c0 -6 7 -19 16 -30 14 -18 14 -18 3 6 -14 31 -19 36 -19
24z"/>
<path d="M4237 6499 c7 -7 15 -10 18 -7 3 3 -2 9 -12 12 -14 6 -15 5 -6 -5z"/>
<path d="M3890 6486 c0 -2 7 -7 16 -10 8 -3 12 -2 9 4 -6 10 -25 14 -25 6z"/>
<path d="M3837 6459 c7 -7 15 -10 18 -7 3 3 -2 9 -12 12 -14 6 -15 5 -6 -5z"/>
<path d="M4246 6457 c3 -10 9 -15 12 -12 3 3 0 11 -7 18 -10 9 -11 8 -5 -6z"/>
<path d="M4510 6461 c0 -6 4 -13 10 -16 6 -3 7 1 4 9 -7 18 -14 21 -14 7z"/>
<path d="M3962 6395 c15 -16 20 -17 30 -6 11 11 10 13 0 7 -7 -4 -21 -2 -30 5
-15 12 -15 11 0 -6z"/>
<path d="M4375 6400 c3 -4 14 -10 25 -13 11 -3 18 -2 15 3 -3 4 -14 10 -25 13
-11 3 -18 2 -15 -3z"/>
<path d="M4652 6396 c7 -8 15 -12 17 -11 5 6 -10 25 -20 25 -5 0 -4 -6 3 -14z"/>
<path d="M3920 6370 c12 -16 24 -30 26 -30 3 0 -4 14 -16 30 -12 17 -24 30
-26 30 -3 0 4 -13 16 -30z"/>
<path d="M3960 6361 c0 -5 7 -11 15 -15 8 -3 15 -1 15 3 0 5 -7 11 -15 15 -8
3 -15 1 -15 -3z"/>
<path d="M4628 6343 c7 -3 16 -2 19 1 4 3 -2 6 -13 5 -11 0 -14 -3 -6 -6z"/>
<path d="M4365 6331 c-3 -5 -2 -12 3 -15 5 -3 9 1 9 9 0 17 -3 19 -12 6z"/>
<path d="M3955 6320 c3 -5 11 -10 16 -10 6 0 7 5 4 10 -3 6 -11 10 -16 10 -6
0 -7 -4 -4 -10z"/>
<path d="M4655 6320 c3 -5 8 -10 11 -10 2 0 4 5 4 10 0 6 -5 10 -11 10 -5 0
-7 -4 -4 -10z"/>
<path d="M4736 6317 c3 -10 9 -15 12 -12 3 3 0 11 -7 18 -10 9 -11 8 -5 -6z"/>
<path d="M4550 6300 c6 -11 13 -20 16 -20 2 0 0 9 -6 20 -6 11 -13 20 -16 20
-2 0 0 -9 6 -20z"/>
<path d="M4040 6307 c0 -3 15 -10 32 -16 18 -6 28 -7 23 -2 -12 10 -55 25 -55
18z"/>
<path d="M4410 6301 c0 -6 4 -13 10 -16 6 -3 7 1 4 9 -7 18 -14 21 -14 7z"/>
<path d="M4441 6294 c0 -11 3 -14 6 -6 3 7 2 16 -1 19 -3 4 -6 -2 -5 -13z"/>
<path d="M4120 6296 c0 -2 7 -9 15 -16 9 -7 15 -8 15 -2 0 5 -7 12 -15 16 -8
3 -15 4 -15 2z"/>
<path d="M4465 6290 c3 -5 8 -10 11 -10 2 0 4 5 4 10 0 6 -5 10 -11 10 -5 0
-7 -4 -4 -10z"/>
<path d="M4508 6293 c7 -3 16 -2 19 1 4 3 -2 6 -13 5 -11 0 -14 -3 -6 -6z"/>
<path d="M4050 6270 c0 -5 5 -10 11 -10 5 0 7 5 4 10 -3 6 -8 10 -11 10 -2 0
-4 -4 -4 -10z"/>
<path d="M4620 6270 c0 -6 7 -10 15 -10 8 0 15 2 15 4 0 2 -7 6 -15 10 -8 3
-15 1 -15 -4z"/>
<path d="M4110 6242 c0 -12 19 -26 26 -19 2 2 -2 10 -11 17 -9 8 -15 8 -15 2z"/>
<path d="M4610 6216 c0 -8 4 -17 9 -20 5 -4 7 3 4 14 -6 23 -13 26 -13 6z"/>
<path d="M4080 6186 c0 -2 8 -10 18 -17 15 -13 16 -12 3 4 -13 16 -21 21 -21
13z"/>
<path d="M4600 6176 c0 -2 7 -7 16 -10 8 -3 12 -2 9 4 -6 10 -25 14 -25 6z"/>
<path d="M4770 6150 c6 -11 15 -20 20 -20 6 0 2 9 -7 20 -10 11 -19 20 -21 20
-1 0 2 -9 8 -20z"/>
<path d="M4824 6156 c11 -9 24 -16 30 -16 12 0 7 5 -24 19 -24 11 -24 11 -6
-3z"/>
<path d="M4661 6144 c0 -11 3 -14 6 -6 3 7 2 16 -1 19 -3 4 -6 -2 -5 -13z"/>
<path d="M4750 6126 c0 -2 8 -10 18 -17 15 -13 16 -12 3 4 -13 16 -21 21 -21
13z"/>
<path d="M4500 6100 c6 -11 13 -20 16 -20 2 0 0 9 -6 20 -6 11 -13 20 -16 20
-2 0 0 -9 6 -20z"/>
<path d="M4160 6090 c0 -5 5 -10 11 -10 5 0 7 5 4 10 -3 6 -8 10 -11 10 -2 0
-4 -4 -4 -10z"/>
<path d="M4630 6090 c20 -13 33 -13 25 0 -3 6 -14 10 -23 10 -15 0 -15 -2 -2
-10z"/>
<path d="M4575 6060 c3 -5 11 -10 16 -10 6 0 7 5 4 10 -3 6 -11 10 -16 10 -6
0 -7 -4 -4 -10z"/>
<path d="M4235 6050 c3 -5 8 -10 11 -10 2 0 4 5 4 10 0 6 -5 10 -11 10 -5 0
-7 -4 -4 -10z"/>
<path d="M4615 6050 c3 -5 11 -10 16 -10 6 0 7 5 4 10 -3 6 -11 10 -16 10 -6
0 -7 -4 -4 -10z"/>
<path d="M4720 6040 c0 -5 5 -10 11 -10 5 0 7 5 4 10 -3 6 -8 10 -11 10 -2 0
-4 -4 -4 -10z"/>
<path d="M4730 6016 c0 -2 7 -7 16 -10 8 -3 12 -2 9 4 -6 10 -25 14 -25 6z"/>
<path d="M4296 5995 c4 -8 11 -15 16 -15 6 0 5 6 -2 15 -7 8 -14 15 -16 15 -2
0 -1 -7 2 -15z"/>
<path d="M4807 5959 c7 -7 15 -10 18 -7 3 3 -2 9 -12 12 -14 6 -15 5 -6 -5z"/>
<path d="M4300 5940 c0 -5 5 -10 11 -10 5 0 7 5 4 10 -3 6 -8 10 -11 10 -2 0
-4 -4 -4 -10z"/>
<path d="M4648 5903 c7 -3 16 -2 19 1 4 3 -2 6 -13 5 -11 0 -14 -3 -6 -6z"/>
<path d="M4780 5893 c0 -5 10 -18 23 -29 l22 -19 -20 25 c-11 14 -21 27 -22
29 -2 2 -3 0 -3 -6z"/>
<path d="M4760 5875 c0 -5 5 -17 10 -25 5 -8 10 -10 10 -5 0 6 -5 17 -10 25
-5 8 -10 11 -10 5z"/>
<path d="M4700 5830 c0 -5 5 -10 11 -10 5 0 7 5 4 10 -3 6 -8 10 -11 10 -2 0
-4 -4 -4 -10z"/>
<path d="M4796 5825 c4 -8 11 -15 16 -15 6 0 5 6 -2 15 -7 8 -14 15 -16 15 -2
0 -1 -7 2 -15z"/>
<path d="M3075 5780 c3 -5 11 -10 16 -10 6 0 7 5 4 10 -3 6 -11 10 -16 10 -6
0 -7 -4 -4 -10z"/>
<path d="M4820 5786 c0 -2 7 -6 15 -10 8 -3 15 -1 15 4 0 6 -7 10 -15 10 -8 0
-15 -2 -15 -4z"/>
<path d="M4691 5724 c0 -11 3 -14 6 -6 3 7 2 16 -1 19 -3 4 -6 -2 -5 -13z"/>
<path d="M4351 5698 c-1 -10 9 -22 22 -28 19 -9 20 -9 6 2 -9 7 -18 20 -22 28
-4 12 -6 12 -6 -2z"/>
<path d="M4706 5615 c-14 -154 -62 -285 -147 -397 -54 -72 -150 -169 -160
-162 -8 5 -10 -1 -8 -23 0 -5 -10 -11 -23 -15 -16 -6 -13 -6 10 -3 19 3 46 14
60 25 159 122 196 163 255 281 73 149 92 369 31 369 -7 0 -14 -29 -18 -75z"/>
<path d="M4830 5675 c7 -8 17 -15 22 -15 6 0 5 7 -2 15 -7 8 -17 15 -22 15 -6
0 -5 -7 2 -15z"/>
<path d="M4780 5676 c0 -2 9 -6 20 -9 11 -3 18 -1 14 4 -5 9 -34 13 -34 5z"/>
<path d="M2994 5642 c4 -7 14 -12 23 -12 9 0 22 -8 30 -17 13 -16 13 -16 3 5
-6 12 -15 22 -20 22 -4 0 -16 3 -26 7 -12 4 -15 3 -10 -5z"/>
<path d="M4850 5640 c0 -5 5 -10 11 -10 5 0 7 5 4 10 -3 6 -8 10 -11 10 -2 0
-4 -4 -4 -10z"/>
<path d="M4790 5626 c0 -2 8 -10 18 -17 15 -13 16 -12 3 4 -13 16 -21 21 -21
13z"/>
<path d="M3000 5605 c0 -8 4 -15 10 -15 5 0 7 7 4 15 -4 8 -8 15 -10 15 -2 0
-4 -7 -4 -15z"/>
<path d="M4390 5609 c0 -5 5 -7 10 -4 6 3 10 8 10 11 0 2 -4 4 -10 4 -5 0 -10
-5 -10 -11z"/>
<path d="M4390 5551 c0 -6 4 -13 10 -16 6 -3 7 1 4 9 -7 18 -14 21 -14 7z"/>
<path d="M2970 5536 c0 -2 7 -7 16 -10 8 -3 12 -2 9 4 -6 10 -25 14 -25 6z"/>
<path d="M4630 5520 c-9 -6 -10 -10 -3 -10 6 0 15 5 18 10 8 12 4 12 -15 0z"/>
<path d="M3020 5506 c0 -2 14 -14 30 -26 17 -12 30 -18 30 -13 0 5 -13 17 -30
26 -16 10 -30 16 -30 13z"/>
<path d="M4810 5500 c0 -5 5 -10 11 -10 5 0 7 5 4 10 -3 6 -8 10 -11 10 -2 0
-4 -4 -4 -10z"/>
<path d="M2995 5490 c3 -5 8 -10 11 -10 2 0 4 5 4 10 0 6 -5 10 -11 10 -5 0
-7 -4 -4 -10z"/>
<path d="M3000 5460 c0 -5 5 -10 11 -10 13 0 31 -18 47 -45 11 -20 11 -20 12
1 0 18 -29 69 -30 51 0 -4 -9 -3 -20 3 -14 7 -20 7 -20 0z"/>
<path d="M4620 5466 c0 -2 8 -10 18 -17 15 -13 16 -12 3 4 -13 16 -21 21 -21
13z"/>
<path d="M2980 5451 c0 -6 4 -13 10 -16 6 -3 7 1 4 9 -7 18 -14 21 -14 7z"/>
<path d="M3081 5434 c0 -11 3 -14 6 -6 3 7 2 16 -1 19 -3 4 -6 -2 -5 -13z"/>
<path d="M4370 5440 c0 -5 5 -10 11 -10 5 0 7 5 4 10 -3 6 -8 10 -11 10 -2 0
-4 -4 -4 -10z"/>
<path d="M4601 5429 c-1 -9 7 -23 17 -30 15 -12 16 -12 6 1 -6 8 -14 22 -17
30 -5 13 -6 12 -6 -1z"/>
<path d="M3020 5410 c13 -24 17 -25 17 -5 0 8 -6 16 -14 19 -11 4 -11 1 -3
-14z"/>
<path d="M3092 5390 c0 -14 2 -19 5 -12 2 6 2 18 0 25 -3 6 -5 1 -5 -13z"/>
<path d="M3000 5384 c0 -3 14 -10 30 -15 24 -9 30 -17 30 -39 0 -17 8 -34 20
-43 10 -7 24 -24 29 -38 7 -18 10 -19 10 -6 1 10 -10 29 -24 43 -24 23 -36 82
-15 69 6 -4 7 1 3 11 -4 12 -8 14 -11 6 -2 -8 -8 -9 -15 -4 -14 11 -57 22 -57
16z"/>
<path d="M3111 5344 c0 -12 6 -24 14 -28 8 -3 15 -1 15 4 0 6 -4 10 -9 10 -5
0 -12 8 -14 18 -4 13 -5 12 -6 -4z"/>
<path d="M2990 5342 c0 -4 9 -13 20 -20 11 -7 20 -9 20 -4 0 4 -9 13 -20 20
-11 7 -20 9 -20 4z"/>
<path d="M3110 5301 c0 -5 6 -14 13 -20 10 -8 14 -7 14 4 0 8 -6 16 -14 19 -7
3 -13 2 -13 -3z"/>
<path d="M3051 5283 c8 -13 20 -23 28 -23 8 0 12 1 10 3 -2 1 -15 11 -28 22
l-24 20 14 -22z"/>
<path d="M3142 5245 c-11 -12 -10 -15 3 -15 8 0 15 7 15 15 0 18 -2 18 -18 0z"/>
<path d="M3056 5233 c5 -5 12 -12 16 -18 4 -6 8 -2 8 8 0 9 -7 17 -17 17 -9 0
-12 -3 -7 -7z"/>
<path d="M3100 5210 c0 -5 5 -10 11 -10 5 0 7 5 4 10 -3 6 -8 10 -11 10 -2 0
-4 -4 -4 -10z"/>
<path d="M3150 5195 c13 -14 25 -25 27 -25 9 0 -33 49 -41 50 -5 0 1 -11 14
-25z"/>
<path d="M3170 5212 c0 -9 38 -52 46 -52 2 0 -5 14 -18 30 -23 31 -28 35 -28
22z"/>
<path d="M3080 5190 c0 -5 5 -10 11 -10 5 0 7 5 4 10 -3 6 -8 10 -11 10 -2 0
-4 -4 -4 -10z"/>
<path d="M3190 5151 c0 -5 9 -13 20 -16 11 -3 20 -15 20 -26 0 -10 4 -19 9
-19 17 0 -1 39 -25 55 -13 8 -24 11 -24 6z"/>
<path d="M3137 5124 c7 -3 9 -13 6 -22 -4 -15 -3 -15 6 -2 10 13 12 13 21 0 8
-13 10 -13 10 1 0 17 -20 30 -43 28 -9 0 -9 -2 0 -5z"/>
<path d="M3281 5112 c-1 -8 -6 -10 -13 -6 -8 5 -7 1 2 -10 15 -19 26 -7 17 17
-4 9 -6 9 -6 -1z"/>
<path d="M3210 5092 c0 -5 16 -22 35 -39 19 -17 35 -28 35 -25 0 4 -16 22 -35
39 -19 18 -35 29 -35 25z"/>
<path d="M3289 5051 c34 -31 47 -39 36 -21 -3 5 -20 19 -38 31 l-32 21 34 -31z"/>
<path d="M3320 5060 c0 -5 5 -10 11 -10 5 0 7 5 4 10 -3 6 -8 10 -11 10 -2 0
-4 -4 -4 -10z"/>
<path d="M3348 5034 c6 -3 9 -11 5 -17 -3 -7 -3 -9 2 -5 4 4 24 -2 44 -14 l36
-21 -26 25 c-14 14 -36 28 -50 32 -13 3 -18 3 -11 0z"/>
<path d="M4330 5000 c0 -5 5 -10 11 -10 5 0 7 5 4 10 -3 6 -8 10 -11 10 -2 0
-4 -4 -4 -10z"/>
<path d="M3410 4966 c0 -2 7 -7 16 -10 8 -3 12 -2 9 4 -6 10 -25 14 -25 6z"/>
<path d="M3495 4940 c-3 -5 -1 -10 4 -10 6 0 11 5 11 10 0 6 -2 10 -4 10 -3 0
-8 -4 -11 -10z"/>
<path d="M3545 4890 c3 -5 11 -10 16 -10 6 0 7 5 4 10 -3 6 -11 10 -16 10 -6
0 -7 -4 -4 -10z"/>
<path d="M2300 4213 c0 -5 9 -18 20 -28 11 -10 20 -14 20 -8 0 5 -9 18 -20 28
-11 10 -20 14 -20 8z"/>
<path d="M1831 4123 c0 -4 4 -17 9 -28 8 -19 9 -19 9 2 1 12 -3 25 -9 28 -5 3
-10 3 -9 -2z"/>
<path d="M2375 4110 c3 -5 8 -10 11 -10 2 0 4 5 4 10 0 6 -5 10 -11 10 -5 0
-7 -4 -4 -10z"/>
<path d="M1800 4065 c0 -10 30 -37 30 -28 0 4 5 1 10 -7 5 -8 10 -10 10 -4 0
7 -11 19 -25 28 -14 9 -25 14 -25 11z"/>
<path d="M1772 4000 c7 -11 17 -20 22 -20 5 0 1 9 -9 20 -10 11 -20 20 -22 20
-2 0 2 -9 9 -20z"/>
<path d="M1811 4011 c-10 -6 -9 -10 5 -15 20 -8 25 -4 16 11 -4 7 -13 9 -21 4z"/>
<path d="M1760 3973 c0 -4 5 -15 10 -23 8 -13 10 -13 10 2 0 9 -4 20 -10 23
-5 3 -10 3 -10 -2z"/>
<path d="M1821 3968 c-1 -20 14 -24 25 -6 4 6 3 8 -4 4 -5 -3 -13 0 -15 6 -3
8 -6 6 -6 -4z"/>
<path d="M1861 3944 c0 -11 3 -14 6 -6 3 7 2 16 -1 19 -3 4 -6 -2 -5 -13z"/>
<path d="M1841 3926 c-1 -15 -4 -16 -16 -6 -13 10 -15 9 -15 -9 0 -12 5 -19
10 -16 6 3 10 2 10 -3 0 -15 41 -53 51 -46 6 3 2 12 -10 21 -12 8 -19 18 -16
23 3 4 1 19 -4 32 -8 19 -10 20 -10 4z"/>
<path d="M1786 3873 c20 -22 27 -24 37 -13 6 7 7 10 1 7 -6 -3 -18 3 -27 14
-9 10 -21 19 -26 19 -6 0 1 -12 15 -27z"/>
<path d="M1798 3828 c5 -5 16 -8 23 -6 8 3 3 7 -10 11 -17 4 -21 3 -13 -5z"/>
<path d="M1914 3820 c0 -10 4 -16 8 -14 4 3 8 -4 8 -16 0 -13 -4 -19 -12 -14
-7 4 -8 3 -4 -4 4 -6 13 -9 21 -6 10 4 11 12 3 35 -12 35 -24 44 -24 19z"/>
<path d="M1848 3805 c2 -14 8 -22 13 -19 5 3 5 14 -1 25 -14 26 -18 24 -12 -6z"/>
<path d="M1886 3784 c1 -15 10 -34 19 -43 16 -15 16 -14 4 9 -7 14 -12 33 -10
43 1 9 -2 17 -7 17 -5 0 -8 -12 -6 -26z"/>
<path d="M1960 3791 c0 -6 4 -13 10 -16 6 -3 7 1 4 9 -7 18 -14 21 -14 7z"/>
<path d="M1867 3752 c3 -12 9 -25 14 -28 14 -8 11 10 -6 32 -13 18 -14 18 -8
-4z"/>
<path d="M1837 3749 c7 -7 15 -10 18 -7 3 3 -2 9 -12 12 -14 6 -15 5 -6 -5z"/>
<path d="M1930 3740 c0 -5 5 -10 10 -10 6 0 10 5 10 10 0 6 -4 10 -10 10 -5 0
-10 -4 -10 -10z"/>
<path d="M1966 3727 c3 -10 9 -15 12 -12 3 3 0 11 -7 18 -10 9 -11 8 -5 -6z"/>
<path d="M2020 3737 c0 -5 5 -17 10 -28 14 -26 2 -24 -21 4 -10 12 -18 17 -19
11 0 -16 37 -46 53 -42 11 2 11 8 -5 33 -10 17 -18 26 -18 22z"/>
<path d="M1910 3710 c0 -5 9 -14 20 -20 11 -6 20 -9 20 -8 0 2 -9 11 -20 21
-11 9 -20 13 -20 7z"/>
<path d="M1945 3710 c3 -5 8 -10 11 -10 2 0 4 5 4 10 0 6 -5 10 -11 10 -5 0
-7 -4 -4 -10z"/>
<path d="M1860 3700 c0 -5 6 -10 13 -10 6 0 28 -13 47 -30 19 -16 36 -27 39
-24 7 7 -71 74 -86 74 -7 0 -13 -4 -13 -10z"/>
<path d="M1980 3684 c0 -9 -5 -12 -12 -8 -7 4 -8 3 -4 -4 4 -7 14 -12 22 -12
8 0 14 -7 14 -15 0 -8 6 -15 14 -15 8 0 21 -6 29 -14 8 -8 34 -20 58 -27 41
-11 42 -13 19 -20 -14 -4 -18 -7 -9 -8 9 -1 19 -8 23 -16 7 -18 -5 -20 -22 -3
-9 9 -12 9 -12 0 0 -11 4 -14 31 -16 7 -1 13 13 15 30 3 27 -1 32 -34 44 -20
8 -40 13 -44 12 -5 -1 -8 5 -8 13 0 9 -10 15 -26 15 -17 0 -25 5 -22 13 3 6
-4 20 -14 30 -15 15 -18 15 -18 1z"/>
<path d="M2070 3660 c0 -16 3 -30 8 -30 4 0 7 14 7 30 0 17 -3 30 -7 30 -5 0
-8 -13 -8 -30z"/>
<path d="M2100 3681 c0 -6 4 -13 10 -16 6 -3 7 1 4 9 -7 18 -14 21 -14 7z"/>
<path d="M2040 3660 c0 -5 5 -10 11 -10 5 0 7 5 4 10 -3 6 -8 10 -11 10 -2 0
-4 -4 -4 -10z"/>
<path d="M2144 3658 c3 -10 9 -26 12 -35 4 -12 -1 -10 -14 6 -10 13 -25 21
-33 18 -10 -4 -9 -6 4 -6 9 -1 17 -5 17 -11 0 -12 37 -50 48 -50 10 0 70 -62
73 -75 3 -12 44 -45 56 -45 4 0 1 5 -8 10 -20 12 -62 80 -50 80 5 0 14 -7 21
-15 7 -8 17 -15 23 -15 6 0 -5 14 -24 31 -19 18 -26 29 -16 26 23 -8 22 0 -2
13 -17 8 -19 7 -16 -15 3 -30 -10 -32 -27 -5 -7 11 -18 20 -25 20 -6 0 -15 5
-19 12 -5 8 -2 9 9 5 10 -3 17 -2 17 3 0 6 -4 10 -10 10 -5 0 -17 12 -25 28
-9 15 -14 19 -11 10z"/>
<path d="M2207 3599 c4 -13 8 -18 11 -10 2 7 -1 18 -6 23 -8 8 -9 4 -5 -13z"/>
<path d="M2075 3570 c3 -5 8 -10 11 -10 2 0 4 5 4 10 0 6 -5 10 -11 10 -5 0
-7 -4 -4 -10z"/>
<path d="M2303 3550 c4 -14 7 -31 7 -37 0 -7 4 -13 9 -13 6 0 6 12 1 31 -11
38 -26 55 -17 19z"/>
<path d="M2180 3551 c0 -12 48 -46 55 -39 3 2 -9 14 -25 27 -17 12 -30 17 -30
12z"/>
<path d="M2335 3550 c3 -5 11 -10 16 -10 6 0 7 5 4 10 -3 6 -11 10 -16 10 -6
0 -7 -4 -4 -10z"/>
<path d="M2160 3536 c0 -2 8 -10 18 -17 15 -13 16 -12 3 4 -13 16 -21 21 -21
13z"/>
<path d="M2330 3526 c0 -3 9 -10 20 -16 11 -6 20 -8 20 -6 0 3 -9 10 -20 16
-11 6 -20 8 -20 6z"/>
<path d="M2162 3504 c10 -10 20 -16 22 -13 3 3 -5 11 -17 18 -21 13 -21 12 -5
-5z"/>
<path d="M2214 3491 c21 -23 26 -26 26 -11 0 5 -10 15 -22 21 -23 12 -23 12
-4 -10z"/>
<path d="M2325 3479 c-4 -6 -4 -13 -1 -16 3 -4 6 -1 6 5 0 7 5 12 11 12 6 0 8
-7 5 -16 -3 -8 -2 -12 4 -9 5 3 19 1 30 -5 24 -13 26 -2 5 26 -15 19 -15 19
-8 -1 6 -19 6 -19 -14 -2 -23 20 -29 21 -38 6z"/>
<path d="M2260 3461 c0 -9 30 -24 36 -18 2 1 -6 8 -16 15 -11 7 -20 8 -20 3z"/>
<path d="M2328 3433 c7 -3 16 -2 19 1 4 3 -2 6 -13 5 -11 0 -14 -3 -6 -6z"/>
<path d="M2415 3430 c-4 -6 -4 -10 -1 -10 2 0 11 -3 20 -6 9 -3 16 -2 16 4 0
14 -28 23 -35 12z"/>
<path d="M2270 3426 c0 -2 9 -6 20 -9 11 -3 20 -1 20 4 0 5 -9 9 -20 9 -11 0
-20 -2 -20 -4z"/>
<path d="M2310 3391 c0 -6 6 -11 14 -11 8 0 18 -5 22 -12 5 -8 2 -9 -10 -5
-15 6 -15 3 3 -21 28 -40 45 -52 78 -57 15 -2 23 -2 17 1 -6 3 -9 16 -6 29 3
21 1 24 -13 19 -13 -5 -14 -9 -3 -15 10 -6 10 -11 0 -21 -9 -9 -12 -9 -12 1 0
7 -5 9 -12 5 -8 -5 -9 -2 -5 9 3 9 3 16 -1 16 -20 -3 -32 2 -32 15 0 13 23 16
35 5 9 -10 65 3 59 13 -4 6 -1 14 6 18 8 5 9 10 2 14 -6 3 -13 -3 -17 -14 -8
-26 -41 -26 -48 0 -3 11 -11 20 -17 20 -10 0 -10 -3 0 -15 17 -21 -3 -20 -35
1 -15 10 -25 12 -25 5z"/>
<path d="M2400 3380 c0 -5 5 -10 11 -10 5 0 7 5 4 10 -3 6 -8 10 -11 10 -2 0
-4 -4 -4 -10z"/>
<path d="M2460 3331 c0 -5 5 -13 10 -16 6 -3 10 -2 10 4 0 5 -4 13 -10 16 -5
3 -10 2 -10 -4z"/>
<path d="M2336 3305 c4 -11 18 -30 31 -43 13 -12 21 -27 18 -32 -4 -6 -2 -9 3
-8 5 2 19 -8 30 -22 12 -14 21 -19 22 -12 0 6 -4 12 -9 12 -5 0 -12 8 -15 18
-4 9 -24 37 -47 62 -22 25 -37 36 -33 25z"/>
<path d="M2450 3286 c0 -8 5 -18 12 -22 7 -5 8 -3 3 6 -4 7 -2 16 6 21 11 7
10 9 -3 9 -10 0 -18 -6 -18 -14z"/>
<path d="M2432 3255 c2 -13 12 -21 28 -22 14 -1 18 0 10 3 -8 4 -21 14 -28 23
-13 14 -13 14 -10 -4z"/>
<path d="M2374 3201 c11 -11 23 -21 28 -21 14 0 -1 19 -25 31 -22 12 -22 12
-3 -10z"/>
<path d="M2450 3202 c0 -11 5 -24 10 -27 6 -4 9 2 7 14 -4 29 -17 39 -17 13z"/>
<path d="M2403 3155 c-3 -9 -3 -19 1 -22 3 -4 6 1 6 9 0 11 8 14 28 11 23 -3
24 -2 7 6 -29 14 -35 13 -42 -4z"/>
<path d="M2347 3060 c3 -11 9 -22 13 -25 5 -3 6 4 3 15 -3 11 -9 22 -13 25 -5
3 -6 -4 -3 -15z"/>
<path d="M1751 3064 c-1 -14 23 -35 42 -38 8 -1 23 -8 33 -16 15 -13 17 -13
12 0 -2 8 -14 19 -26 25 -12 5 -22 15 -22 22 0 7 -5 13 -11 13 -5 0 -7 -4 -4
-10 3 -5 2 -10 -4 -10 -5 0 -12 6 -14 13 -4 7 -6 8 -6 1z"/>
<path d="M2381 3054 c0 -11 3 -14 6 -6 3 7 2 16 -1 19 -3 4 -6 -2 -5 -13z"/>
<path d="M1767 2995 c16 -22 43 -34 43 -19 0 8 -43 43 -53 44 -4 0 0 -11 10
-25z"/>
<path d="M1854 2981 c1 -8 8 -17 16 -21 8 -4 25 -12 37 -18 30 -16 38 -15 24
2 -6 7 -24 16 -40 19 -16 4 -31 12 -34 19 -3 9 -4 9 -3 -1z"/>
<path d="M2810 4194 c0 -6 6 -17 14 -23 11 -9 15 -8 20 5 9 24 7 31 -4 14 -9
-13 -11 -13 -20 0 -5 8 -10 10 -10 4z"/>
<path d="M2800 4150 c0 -5 4 -10 9 -10 5 0 18 -3 28 -6 16 -5 16 -4 -1 10 -23
18 -36 20 -36 6z"/>
<path d="M2680 4120 c8 -5 24 -9 35 -9 l20 0 -20 9 c-11 5 -27 9 -35 9 -13 1
-13 0 0 -9z"/>
<path d="M2770 4123 c8 -4 21 -13 28 -22 11 -14 11 -13 2 7 -6 12 -18 22 -28
21 -14 0 -14 -2 -2 -6z"/>
<path d="M2816 4116 c4 -11 54 -41 54 -33 0 2 -13 13 -30 25 -17 13 -27 17
-24 8z"/>
<path d="M2726 4085 c4 -8 8 -15 10 -15 2 0 4 7 4 15 0 8 -4 15 -10 15 -5 0
-7 -7 -4 -15z"/>
<path d="M2787 4033 c3 -7 13 -13 22 -12 10 0 11 2 3 6 -6 2 -10 8 -8 12 3 4
-1 8 -8 8 -8 0 -12 -6 -9 -14z"/>
<path d="M2770 4016 c0 -8 4 -17 9 -20 5 -4 7 3 4 14 -6 23 -13 26 -13 6z"/>
<path d="M2839 4017 c6 -8 7 -18 3 -22 -4 -5 -1 -5 6 -1 10 6 10 11 1 22 -6 8
-14 14 -16 14 -3 0 0 -6 6 -13z"/>
<path d="M2805 3999 c-4 -6 -5 -12 -2 -15 2 -3 7 2 10 11 7 17 1 20 -8 4z"/>
<path d="M2820 3908 c0 -9 5 -20 11 -23 17 -11 18 -2 3 19 -12 17 -14 17 -14
4z"/>
<path d="M2770 3865 c0 -8 4 -15 10 -15 5 0 7 7 4 15 -4 8 -8 15 -10 15 -2 0
-4 -7 -4 -15z"/>
<path d="M2807 3829 c4 -13 8 -18 11 -10 2 7 -1 18 -6 23 -8 8 -9 4 -5 -13z"/>
<path d="M2855 3789 c-4 -6 -5 -12 -2 -15 2 -3 7 2 10 11 7 17 1 20 -8 4z"/>
<path d="M2815 3780 c3 -5 8 -10 11 -10 2 0 4 5 4 10 0 6 -5 10 -11 10 -5 0
-7 -4 -4 -10z"/>
<path d="M3190 3787 c0 -2 14 -16 31 -33 22 -20 28 -23 19 -8 -11 18 -50 50
-50 41z"/>
<path d="M2780 3760 c0 -5 5 -10 11 -10 5 0 7 5 4 10 -3 6 -8 10 -11 10 -2 0
-4 -4 -4 -10z"/>
<path d="M2822 3746 c7 -8 16 -12 21 -9 11 7 -2 23 -19 23 -12 0 -12 -2 -2
-14z"/>
<path d="M3160 3750 c0 -5 5 -10 11 -10 5 0 7 5 4 10 -3 6 -8 10 -11 10 -2 0
-4 -4 -4 -10z"/>
<path d="M3269 3736 c29 -31 35 -33 22 -7 -6 10 -18 22 -28 25 -13 5 -11 1 6
-18z"/>
<path d="M2776 3705 c9 -39 13 -45 27 -44 9 0 9 2 0 6 -7 2 -13 12 -13 21 0
10 -5 24 -10 32 -8 11 -9 7 -4 -15z"/>
<path d="M3220 3726 c0 -2 8 -10 18 -17 15 -13 16 -12 3 4 -13 16 -21 21 -21
13z"/>
<path d="M3350 3720 c0 -5 5 -10 11 -10 5 0 7 5 4 10 -3 6 -8 10 -11 10 -2 0
-4 -4 -4 -10z"/>
<path d="M2810 3711 c0 -5 5 -13 10 -16 6 -3 10 -2 10 4 0 5 -4 13 -10 16 -5
3 -10 2 -10 -4z"/>
<path d="M2845 3710 c3 -5 11 -10 16 -10 6 0 7 5 4 10 -3 6 -11 10 -16 10 -6
0 -7 -4 -4 -10z"/>
<path d="M2755 3680 c3 -5 8 -10 11 -10 2 0 4 5 4 10 0 6 -5 10 -11 10 -5 0
-7 -4 -4 -10z"/>
<path d="M2840 3686 c0 -2 8 -10 18 -17 15 -13 16 -12 3 4 -13 16 -21 21 -21
13z"/>
<path d="M3307 3670 c9 -11 19 -17 21 -15 6 6 -18 35 -29 35 -5 0 -1 -9 8 -20z"/>
<path d="M3351 3658 c13 -20 28 -37 32 -38 12 0 -8 33 -33 55 -22 19 -22 19 1
-17z"/>
<path d="M2855 3640 c3 -5 11 -10 16 -10 6 0 7 5 4 10 -3 6 -11 10 -16 10 -6
0 -7 -4 -4 -10z"/>
<path d="M2840 3592 c12 -18 24 -31 27 -28 3 2 -7 17 -22 33 l-28 28 23 -33z"/>
<path d="M3317 3609 c7 -7 15 -10 18 -7 3 3 -2 9 -12 12 -14 6 -15 5 -6 -5z"/>
<path d="M3350 3610 c0 -5 5 -10 11 -10 5 0 7 5 4 10 -3 6 -8 10 -11 10 -2 0
-4 -4 -4 -10z"/>
<path d="M3420 3606 c0 -8 4 -17 9 -20 5 -4 7 3 4 14 -6 23 -13 26 -13 6z"/>
<path d="M2760 3596 c0 -2 7 -7 16 -10 8 -3 12 -2 9 4 -6 10 -25 14 -25 6z"/>
<path d="M3396 3585 c4 -8 11 -15 16 -15 6 0 5 6 -2 15 -7 8 -14 15 -16 15 -2
0 -1 -7 2 -15z"/>
<path d="M2815 3570 c3 -5 8 -10 11 -10 2 0 4 5 4 10 0 6 -5 10 -11 10 -5 0
-7 -4 -4 -10z"/>
<path d="M3360 3560 c0 -5 5 -10 11 -10 5 0 7 5 4 10 -3 6 -8 10 -11 10 -2 0
-4 -4 -4 -10z"/>
<path d="M3423 3556 c-6 -8 -9 -17 -6 -20 12 -11 19 -6 20 14 2 23 2 23 -14 6z"/>
<path d="M2785 3550 c3 -5 8 -10 11 -10 2 0 4 5 4 10 0 6 -5 10 -11 10 -5 0
-7 -4 -4 -10z"/>
<path d="M2807 3533 c-4 -6 1 -14 11 -18 25 -11 52 -13 46 -3 -3 4 -14 8 -24
8 -10 0 -20 5 -22 12 -3 8 -6 9 -11 1z"/>
<path d="M3350 3530 c-8 -6 -10 -10 -4 -10 6 0 16 -10 22 -22 10 -22 10 -22 8
5 -3 34 -8 38 -26 27z"/>
<path d="M3390 3530 c0 -5 5 -10 11 -10 5 0 7 5 4 10 -3 6 -8 10 -11 10 -2 0
-4 -4 -4 -10z"/>
<path d="M2770 3516 c0 -2 7 -9 15 -16 13 -11 14 -10 9 4 -5 14 -24 23 -24 12z"/>
<path d="M3400 3500 c0 -5 5 -10 11 -10 5 0 7 5 4 10 -3 6 -8 10 -11 10 -2 0
-4 -4 -4 -10z"/>
<path d="M2810 3496 c0 -4 7 -14 15 -22 8 -9 15 -11 15 -6 0 5 -7 15 -15 22
-8 7 -15 9 -15 6z"/>
<path d="M2825 3440 c3 -5 8 -10 11 -10 2 0 4 5 4 10 0 6 -5 10 -11 10 -5 0
-7 -4 -4 -10z"/>
<path d="M3355 3420 c3 -5 8 -10 11 -10 2 0 4 5 4 10 0 6 -5 10 -11 10 -5 0
-7 -4 -4 -10z"/>
<path d="M2801 3403 c7 -12 15 -20 18 -17 3 2 -3 12 -13 22 -17 16 -18 16 -5
-5z"/>
<path d="M2835 3410 c3 -5 8 -10 11 -10 2 0 4 5 4 10 0 6 -5 10 -11 10 -5 0
-7 -4 -4 -10z"/>
<path d="M3405 3380 c3 -5 11 -10 16 -10 6 0 7 5 4 10 -3 6 -11 10 -16 10 -6
0 -7 -4 -4 -10z"/>
<path d="M3383 3356 c7 -14 13 -23 15 -21 7 6 -9 45 -18 45 -4 0 -3 -11 3 -24z"/>
<path d="M2750 3351 c0 -5 7 -11 15 -15 8 -3 15 -1 15 3 0 5 -7 11 -15 15 -8
3 -15 1 -15 -3z"/>
<path d="M2796 3337 c3 -10 9 -15 12 -12 3 3 0 11 -7 18 -10 9 -11 8 -5 -6z"/>
<path d="M2834 3336 c1 -8 5 -18 8 -22 4 -3 5 1 4 10 -1 8 -5 18 -8 22 -4 3
-5 -1 -4 -10z"/>
<path d="M2755 3310 c3 -5 8 -10 11 -10 2 0 4 5 4 10 0 6 -5 10 -11 10 -5 0
-7 -4 -4 -10z"/>
<path d="M2780 3306 c0 -8 4 -17 9 -20 5 -4 7 3 4 14 -6 23 -13 26 -13 6z"/>
<path d="M3390 3300 c0 -5 5 -10 11 -10 5 0 7 5 4 10 -3 6 -8 10 -11 10 -2 0
-4 -4 -4 -10z"/>
<path d="M3390 3270 c0 -5 5 -10 11 -10 5 0 7 5 4 10 -3 6 -8 10 -11 10 -2 0
-4 -4 -4 -10z"/>
<path d="M3426 3267 c3 -10 9 -15 12 -12 3 3 0 11 -7 18 -10 9 -11 8 -5 -6z"/>
<path d="M2850 3251 c0 -6 4 -13 10 -16 6 -3 7 1 4 9 -7 18 -14 21 -14 7z"/>
<path d="M2821 3233 c7 -12 15 -20 18 -17 3 2 -3 12 -13 22 -17 16 -18 16 -5
-5z"/>
<path d="M2805 3210 c3 -5 0 -11 -5 -13 -6 -3 -5 -4 2 -3 7 2 21 -1 31 -6 9
-5 17 -5 17 -1 0 4 -11 13 -25 20 -14 6 -23 7 -20 3z"/>
<path d="M3360 3186 c0 -2 7 -9 15 -16 13 -11 14 -10 9 4 -5 14 -24 23 -24 12z"/>
<path d="M3405 3151 c-3 -5 -1 -12 5 -16 5 -3 10 1 10 9 0 18 -6 21 -15 7z"/>
<path d="M2775 3130 c3 -5 8 -10 11 -10 2 0 4 5 4 10 0 6 -5 10 -11 10 -5 0
-7 -4 -4 -10z"/>
<path d="M2830 3120 c-12 -7 -10 -9 7 -7 12 0 19 5 17 9 -6 10 -6 10 -24 -2z"/>
<path d="M3398 3090 c14 -16 28 -28 30 -25 2 2 -3 11 -12 20 -9 9 -16 21 -16
26 0 5 -6 9 -14 9 -10 0 -6 -10 12 -30z"/>
<path d="M3340 3104 c0 -6 7 -19 16 -30 14 -18 14 -18 3 6 -14 31 -19 36 -19
24z"/>
<path d="M2836 3085 c4 -8 10 -15 15 -15 4 0 6 7 3 15 -4 8 -10 15 -15 15 -4
0 -6 -7 -3 -15z"/>
<path d="M2788 3083 c7 -3 16 -2 19 1 4 3 -2 6 -13 5 -11 0 -14 -3 -6 -6z"/>
<path d="M2776 3020 c15 -22 31 -40 36 -40 5 0 2 7 -6 16 -17 16 -22 39 -7 30
5 -3 12 1 15 9 4 13 2 14 -14 5 -16 -9 -22 -8 -26 5 -3 8 -10 15 -15 15 -5 0
3 -18 17 -40z"/>
<path d="M2831 3034 c0 -11 3 -14 6 -6 3 7 2 16 -1 19 -3 4 -6 -2 -5 -13z"/>
<path d="M3415 3040 c-17 -7 -18 -9 -2 -9 10 -1 22 -13 28 -27 5 -15 12 -25
14 -22 7 7 -7 48 -17 48 -5 0 -6 5 -3 10 7 11 7 11 -20 0z"/>
<path d="M2750 3020 c0 -19 46 -70 63 -70 7 0 3 7 -7 15 -11 8 -28 27 -38 42
-10 17 -18 22 -18 13z"/>
<path d="M3351 2981 c-1 -17 3 -22 15 -17 9 4 23 1 30 -5 12 -9 13 -9 8 4 -7
20 -34 30 -35 14 0 -7 -4 -3 -9 8 -8 19 -9 19 -9 -4z"/>
<path d="M2851 2973 c7 -10 15 -20 16 -22 2 -2 3 3 3 11 0 9 -7 19 -16 22 -15
6 -15 4 -3 -11z"/>
<path d="M3423 2973 c9 -2 14 -9 11 -15 -4 -6 -2 -8 4 -4 6 3 13 2 17 -4 3 -5
12 -10 18 -10 7 0 1 9 -13 20 -14 11 -32 19 -40 19 -10 -1 -10 -3 3 -6z"/>
<path d="M4950 4116 c0 -2 8 -10 18 -17 15 -13 16 -12 3 4 -13 16 -21 21 -21
13z"/>
<path d="M5025 4060 c3 -5 8 -10 11 -10 2 0 4 5 4 10 0 6 -5 10 -11 10 -5 0
-7 -4 -4 -10z"/>
<path d="M5020 4010 c0 -9 39 -25 45 -18 2 2 -7 8 -21 15 -13 6 -24 7 -24 3z"/>
<path d="M5087 3729 c7 -7 15 -10 18 -7 3 3 -2 9 -12 12 -14 6 -15 5 -6 -5z"/>
<path d="M5145 3510 c3 -5 8 -10 11 -10 2 0 4 5 4 10 0 6 -5 10 -11 10 -5 0
-7 -4 -4 -10z"/>
<path d="M5197 3359 c7 -7 15 -10 18 -7 3 3 -2 9 -12 12 -14 6 -15 5 -6 -5z"/>
<path d="M5300 3136 c0 -2 8 -10 18 -17 15 -13 16 -12 3 4 -13 16 -21 21 -21
13z"/>
<path d="M5335 3090 c3 -5 8 -10 11 -10 2 0 4 5 4 10 0 6 -5 10 -11 10 -5 0
-7 -4 -4 -10z"/>
<path d="M7555 3920 c3 -5 8 -10 11 -10 2 0 4 5 4 10 0 6 -5 10 -11 10 -5 0
-7 -4 -4 -10z"/>
<path d="M7510 3759 c0 -5 9 -9 20 -9 11 0 20 2 20 4 0 2 -9 6 -20 9 -11 3
-20 1 -20 -4z"/>
<path d="M7570 3700 c0 -5 5 -10 11 -10 5 0 7 5 4 10 -3 6 -8 10 -11 10 -2 0
-4 -4 -4 -10z"/>
<path d="M7480 3480 c0 -5 5 -10 11 -10 5 0 7 5 4 10 -3 6 -8 10 -11 10 -2 0
-4 -4 -4 -10z"/>
<path d="M7500 3216 c0 -2 7 -7 16 -10 8 -3 12 -2 9 4 -6 10 -25 14 -25 6z"/>
<path d="M7510 3111 c0 -6 4 -13 10 -16 6 -3 7 1 4 9 -7 18 -14 21 -14 7z"/>
<path d="M7630 3030 c0 -5 5 -10 11 -10 5 0 7 5 4 10 -3 6 -8 10 -11 10 -2 0
-4 -4 -4 -10z"/>
<path d="M7600 2976 c0 -2 7 -7 16 -10 8 -3 12 -2 9 4 -6 10 -25 14 -25 6z"/>
<path d="M6090 3767 c-59 -32 -72 -45 -100 -113 -26 -62 -41 -146 -29 -158 2
-2 93 -6 202 -8 l197 -3 0 31 c0 41 -36 160 -62 202 -11 18 -33 39 -48 47 -36
19 -126 19 -160 2z"/>
<path d="M6317 3729 c7 -7 15 -10 18 -7 3 3 -2 9 -12 12 -14 6 -15 5 -6 -5z"/>
<path d="M6378 3683 c7 -3 16 -2 19 1 4 3 -2 6 -13 5 -11 0 -14 -3 -6 -6z"/>
<path d="M6368 3613 c7 -3 16 -2 19 1 4 3 -2 6 -13 5 -11 0 -14 -3 -6 -6z"/>
<path d="M6420 3606 c0 -2 7 -7 16 -10 8 -3 12 -2 9 4 -6 10 -25 14 -25 6z"/>
<path d="M5838 3353 c7 -3 16 -2 19 1 4 3 -2 6 -13 5 -11 0 -14 -3 -6 -6z"/>
<path d="M5920 3071 c0 -6 4 -13 10 -16 6 -3 7 1 4 9 -7 18 -14 21 -14 7z"/>
<path d="M5910 3043 c0 -5 12 -20 28 -34 l27 -24 -25 30 c-14 17 -26 32 -27
34 -2 2 -3 0 -3 -6z"/>
<path d="M5960 3046 c0 -2 8 -10 18 -17 15 -13 16 -12 3 4 -13 16 -21 21 -21
13z"/>
<path d="M5975 2990 c3 -5 8 -10 11 -10 2 0 4 5 4 10 0 6 -5 10 -11 10 -5 0
-7 -4 -4 -10z"/>
<path d="M6048 2943 c6 -2 18 -2 25 0 6 3 1 5 -13 5 -14 0 -19 -2 -12 -5z"/>
<path d="M6220 2940 c34 -11 60 -11 35 0 -11 5 -29 8 -40 8 -16 0 -15 -2 5 -8z"/>
<path d="M6727 3569 c7 -7 15 -10 18 -7 3 3 -2 9 -12 12 -14 6 -15 5 -6 -5z"/>
<path d="M6960 3415 c13 -14 26 -25 28 -25 3 0 -5 11 -18 25 -13 14 -26 25
-28 25 -3 0 5 -11 18 -25z"/>
<path d="M6918 3393 c7 -3 16 -2 19 1 4 3 -2 6 -13 5 -11 0 -14 -3 -6 -6z"/>
<path d="M6944 3361 c20 -22 26 -25 26 -13 0 4 -10 13 -22 21 -23 14 -23 14
-4 -8z"/>
<path d="M7008 3373 c7 -3 16 -2 19 1 4 3 -2 6 -13 5 -11 0 -14 -3 -6 -6z"/>
<path d="M7058 3273 c7 -3 16 -2 19 1 4 3 -2 6 -13 5 -11 0 -14 -3 -6 -6z"/>
<path d="M6710 3011 c0 -10 19 -25 25 -20 1 2 -3 10 -11 17 -8 7 -14 8 -14 3z"/>
<path d="M8530 3660 c0 -5 5 -10 11 -10 5 0 7 5 4 10 -3 6 -8 10 -11 10 -2 0
-4 -4 -4 -10z"/>
<path d="M8500 3646 c0 -2 8 -10 18 -17 15 -13 16 -12 3 4 -13 16 -21 21 -21
13z"/>
<path d="M8030 3606 c0 -2 7 -7 16 -10 8 -3 12 -2 9 4 -6 10 -25 14 -25 6z"/>
<path d="M8585 3560 c3 -5 8 -10 11 -10 2 0 4 5 4 10 0 6 -5 10 -11 10 -5 0
-7 -4 -4 -10z"/>
<path d="M8377 3387 c-183 -98 -251 -164 -249 -243 0 -55 20 -86 77 -120 l40
-23 69 24 c38 13 73 22 78 19 5 -3 7 0 6 8 -2 7 3 12 10 10 7 -1 25 9 40 23
15 14 29 25 33 25 3 0 6 15 6 33 5 223 4 280 -4 288 -4 4 -51 -15 -106 -44z"/>
<path d="M8520 3321 c0 -5 7 -11 15 -15 8 -3 15 -1 15 3 0 5 -7 11 -15 15 -8
3 -15 1 -15 -3z"/>
<path d="M8025 3170 c3 -5 16 -15 28 -21 l22 -11 -22 21 c-23 22 -39 28 -28
11z"/>
<path d="M8558 3123 c7 -3 16 -2 19 1 4 3 -2 6 -13 5 -11 0 -14 -3 -6 -6z"/>
<path d="M4265 3740 c10 -11 20 -18 23 -16 5 6 -23 36 -34 36 -4 0 1 -9 11
-20z"/>
<path d="M4156 3727 c3 -10 9 -15 12 -12 3 3 0 11 -7 18 -10 9 -11 8 -5 -6z"/>
<path d="M3876 3707 c3 -10 9 -15 12 -12 3 3 0 11 -7 18 -10 9 -11 8 -5 -6z"/>
<path d="M4295 3630 c3 -5 8 -10 11 -10 2 0 4 5 4 10 0 6 -5 10 -11 10 -5 0
-7 -4 -4 -10z"/>
<path d="M3820 3606 c0 -2 7 -7 16 -10 8 -3 12 -2 9 4 -6 10 -25 14 -25 6z"/>
<path d="M3870 3580 c0 -5 5 -10 11 -10 5 0 7 5 4 10 -3 6 -8 10 -11 10 -2 0
-4 -4 -4 -10z"/>
<path d="M3830 3561 c0 -6 4 -13 10 -16 6 -3 7 1 4 9 -7 18 -14 21 -14 7z"/>
<path d="M3840 3491 c0 -6 4 -13 10 -16 6 -3 7 1 4 9 -7 18 -14 21 -14 7z"/>
<path d="M3900 3480 c0 -5 5 -10 11 -10 5 0 7 5 4 10 -3 6 -8 10 -11 10 -2 0
-4 -4 -4 -10z"/>
<path d="M3830 3443 c0 -4 5 -15 10 -23 8 -13 10 -13 10 2 0 9 -4 20 -10 23
-5 3 -10 3 -10 -2z"/>
<path d="M3860 3440 c0 -5 5 -10 11 -10 5 0 7 5 4 10 -3 6 -8 10 -11 10 -2 0
-4 -4 -4 -10z"/>
<path d="M3870 3330 c0 -5 5 -10 11 -10 5 0 7 5 4 10 -3 6 -8 10 -11 10 -2 0
-4 -4 -4 -10z"/>
<path d="M3840 3306 c0 -2 7 -9 15 -16 13 -11 14 -10 9 4 -5 14 -24 23 -24 12z"/>
<path d="M3880 3296 c0 -2 8 -10 18 -17 15 -13 16 -12 3 4 -13 16 -21 21 -21
13z"/>
<path d="M3857 3199 c7 -7 15 -10 18 -7 3 3 -2 9 -12 12 -14 6 -15 5 -6 -5z"/>
<path d="M3830 3156 c0 -2 7 -7 16 -10 8 -3 12 -2 9 4 -6 10 -25 14 -25 6z"/>
<path d="M3900 3131 c0 -5 5 -13 10 -16 6 -3 10 -2 10 4 0 5 -4 13 -10 16 -5
3 -10 2 -10 -4z"/>
<path d="M3880 3010 c0 -5 5 -10 11 -10 5 0 7 5 4 10 -3 6 -8 10 -11 10 -2 0
-4 -4 -4 -10z"/>
<path d="M3907 2972 c1 -8 3 -16 3 -18 0 -2 4 -4 8 -4 5 0 9 7 9 15 0 8 -4 12
-8 9 -4 -2 -9 -1 -12 3 -2 5 -2 2 0 -5z"/>
<path d="M3875 2950 c3 -5 8 -10 11 -10 2 0 4 5 4 10 0 6 -5 10 -11 10 -5 0
-7 -4 -4 -10z"/>
<path d="M4560 3686 c0 -2 7 -7 16 -10 8 -3 12 -2 9 4 -6 10 -25 14 -25 6z"/>
<path d="M4626 3567 c3 -10 9 -15 12 -12 3 3 0 11 -7 18 -10 9 -11 8 -5 -6z"/>
<path d="M4630 3521 c0 -6 4 -13 10 -16 6 -3 7 1 4 9 -7 18 -14 21 -14 7z"/>
<path d="M4670 3341 c0 -5 5 -13 10 -16 6 -3 10 -2 10 4 0 5 -4 13 -10 16 -5
3 -10 2 -10 -4z"/>
<path d="M4607 3239 c4 -13 8 -18 11 -10 2 7 -1 18 -6 23 -8 8 -9 4 -5 -13z"/>
<path d="M4607 3119 c7 -7 15 -10 18 -7 3 3 -2 9 -12 12 -14 6 -15 5 -6 -5z"/>
<path d="M4620 3061 c0 -6 4 -13 10 -16 6 -3 7 1 4 9 -7 18 -14 21 -14 7z"/>
<path d="M4651 3057 c2 -1 13 -9 24 -17 19 -14 19 -14 6 3 -7 9 -18 17 -24 17
-6 0 -8 -1 -6 -3z"/>
<path d="M4650 3027 c0 -3 11 -17 25 -31 23 -23 34 -24 17 -1 -11 15 -42 38
-42 32z"/>
<path d="M4596 3005 c4 -8 13 -15 21 -15 12 0 12 2 -1 15 -8 8 -17 15 -20 15
-3 0 -3 -7 0 -15z"/>
</g>
</svg>
